<?xml version="1.0" encoding="UTF-8" standalone="no"?>
<svg
   xmlns:dc="http://purl.org/dc/elements/1.1/"
   xmlns:cc="http://creativecommons.org/ns#"
   xmlns:rdf="http://www.w3.org/1999/02/22-rdf-syntax-ns#"
   xmlns:svg="http://www.w3.org/2000/svg"
   xmlns="http://www.w3.org/2000/svg"
   xmlns:sodipodi="http://sodipodi.sourceforge.net/DTD/sodipodi-0.dtd"
   xmlns:inkscape="http://www.inkscape.org/namespaces/inkscape"
   width="477.96939pt"
   height="174.76817pt"
   version="1.1"
   viewBox="0 0 477.96939 174.76817"
   id="svg956"
   sodipodi:docname="hyperlink.svg"
   inkscape:version="0.92.4 (5da689c313, 2019-01-14)">
  <metadata
     id="metadata960">
    <rdf:RDF>
      <cc:Work
         rdf:about="">
        <dc:format>image/svg+xml</dc:format>
        <dc:type
           rdf:resource="http://purl.org/dc/dcmitype/StillImage" />
        <dc:title></dc:title>
      </cc:Work>
    </rdf:RDF>
  </metadata>
  <sodipodi:namedview
     pagecolor="#ffffff"
     bordercolor="#666666"
     borderopacity="1"
     objecttolerance="10"
     gridtolerance="10"
     guidetolerance="10"
     inkscape:pageopacity="0"
     inkscape:pageshadow="2"
     inkscape:window-width="1920"
     inkscape:window-height="1018"
     id="namedview958"
     showgrid="false"
     inkscape:zoom="0.86892857"
     inkscape:cx="303.60972"
     inkscape:cy="139.25588"
     inkscape:window-x="0"
     inkscape:window-y="32"
     inkscape:window-maximized="1"
     inkscape:current-layer="svg956" />
  <defs
     id="defs936">
    <symbol
       id="f"
       overflow="visible"
       style="overflow:visible">
      <path
         d="m 39.078,-2.3281 c -2.0117,1.043 -4.1094,1.8281 -6.2969,2.3594 -2.1875,0.5313 -4.4648,0.79688 -6.8281,0.79688 -7.0859,0 -12.699,-1.9766 -16.844,-5.9375 -4.1367,-3.957 -6.2031,-9.3281 -6.2031,-16.109 0,-6.7891 2.0664,-12.164 6.2031,-16.125 4.1445,-3.9688 9.7578,-5.9531 16.844,-5.9531 2.3633,0 4.6406,0.26562 6.8281,0.79688 2.1875,0.53126 4.2852,1.3242 6.2969,2.375 v 8.7969 c -2.0312,-1.3828 -4.0391,-2.3984 -6.0156,-3.0469 -1.9688,-0.64453 -4.0469,-0.96875 -6.2344,-0.96875 -3.9062,0 -6.9844,1.2578 -9.2344,3.7656 -2.2422,2.5 -3.3594,5.9531 -3.3594,10.359 0,4.3867 1.1172,7.8359 3.3594,10.344 2.25,2.5 5.3281,3.75 9.2344,3.75 2.1875,0 4.2656,-0.32031 6.2344,-0.96875 1.9766,-0.64453 3.9844,-1.6602 6.0156,-3.0469 z"
         id="path918"
         inkscape:connector-curvature="0" />
    </symbol>
    <symbol
       id="e"
       overflow="visible"
       style="overflow:visible">
      <path
         d="m 16.031,-40.953 v 9.0625 h 10.516 v 7.2812 H 16.031 v 13.531 c 0,1.4805 0.28906,2.4805 0.875,3 0.59375,0.52344 1.7656,0.78125 3.5156,0.78125 h 5.2344 v 7.2969 h -8.7344 c -4.0312,0 -6.8867,-0.83594 -8.5625,-2.5156 -1.6797,-1.6875 -2.5156,-4.5391 -2.5156,-8.5625 v -13.531 H 0.7654 v -7.2812 h 5.0781 v -9.0625 z"
         id="path921"
         inkscape:connector-curvature="0" />
    </symbol>
    <symbol
       id="d"
       overflow="visible"
       style="overflow:visible">
      <path
         d="M 26.594,-27.234 V -44.312 H 36.86 V 0 H 26.594 v -4.6094 c -1.3984,1.875 -2.9453,3.25 -4.6406,4.125 -1.6875,0.875 -3.6406,1.3125 -5.8594,1.3125 -3.9297,0 -7.1562,-1.5625 -9.6875,-4.6875 -2.5234,-3.125 -3.7812,-7.1445 -3.7812,-12.062 0,-4.9141 1.2578,-8.9375 3.7812,-12.062 2.5312,-3.125 5.7578,-4.6875 9.6875,-4.6875 2.1953,0 4.1445,0.44531 5.8438,1.3281 1.707,0.88672 3.2578,2.2578 4.6562,4.1094 z m -6.7188,20.656 c 2.1875,0 3.8516,-0.79688 5,-2.3906 1.1445,-1.5938 1.7188,-3.9102 1.7188,-6.9531 0,-3.0391 -0.57422,-5.3594 -1.7188,-6.9531 -1.1484,-1.5938 -2.8125,-2.3906 -5,-2.3906 -2.168,0 -3.8242,0.79688 -4.9688,2.3906 -1.1484,1.5938 -1.7188,3.9141 -1.7188,6.9531 0,3.043 0.57031,5.3594 1.7188,6.9531 1.1445,1.5938 2.8008,2.3906 4.9688,2.3906 z"
         id="path924"
         inkscape:connector-curvature="0" />
    </symbol>
    <symbol
       id="c"
       overflow="visible"
       style="overflow:visible">
      <path
         d="m 21.875,-6.5781 c 2.1758,0 3.8359,-0.79688 4.9844,-2.3906 1.1562,-1.5938 1.7344,-3.9102 1.7344,-6.9531 0,-3.0391 -0.57812,-5.3594 -1.7344,-6.9531 -1.1484,-1.5938 -2.8086,-2.3906 -4.9844,-2.3906 -2.1875,0 -3.8672,0.80469 -5.0312,2.4062 -1.168,1.6055 -1.75,3.918 -1.75,6.9375 0,3.0234 0.58203,5.3359 1.75,6.9375 1.1641,1.6055 2.8438,2.4062 5.0312,2.4062 z m -6.7812,-20.656 c 1.4062,-1.8516 2.9609,-3.2227 4.6719,-4.1094 1.707,-0.88281 3.6719,-1.3281 5.8906,-1.3281 3.9375,0 7.1641,1.5625 9.6875,4.6875 2.5195,3.125 3.7812,7.1484 3.7812,12.062 0,4.918 -1.2617,8.9375 -3.7812,12.062 -2.5234,3.125 -5.75,4.6875 -9.6875,4.6875 -2.2188,0 -4.1836,-0.44531 -5.8906,-1.3281 -1.7109,-0.88281 -3.2656,-2.2539 -4.6719,-4.1094 V -7e-4 H 4.9058 v -44.312 h 10.188 z"
         id="path927"
         inkscape:connector-curvature="0" />
    </symbol>
    <symbol
       id="b"
       overflow="visible"
       style="overflow:visible">
      <path
         d="m 5.3594,-42.516 h 10.953 v 34.234 h 19.266 V -8e-4 H 5.3594 Z"
         id="path930"
         inkscape:connector-curvature="0" />
    </symbol>
    <symbol
       id="a"
       overflow="visible"
       style="overflow:visible">
      <path
         d="m 34.953,-41.188 v 9 c -2.3438,-1.0391 -4.625,-1.8281 -6.8438,-2.3594 -2.2188,-0.5313 -4.3203,-0.79688 -6.2969,-0.79688 -2.6172,0 -4.5547,0.35938 -5.8125,1.0781 -1.25,0.71875 -1.875,1.8398 -1.875,3.3594 0,1.1484 0.42188,2.0391 1.2656,2.6719 0.84375,0.63672 2.3789,1.1836 4.6094,1.6406 l 4.6719,0.9375 c 4.7188,0.94922 8.0703,2.3906 10.062,4.3281 2,1.9375 3,4.6875 3,8.25 0,4.6992 -1.3906,8.1953 -4.1719,10.484 -2.7812,2.2812 -7.0312,3.4219 -12.75,3.4219 -2.6875,0 -5.3906,-0.26172 -8.1094,-0.78125 -2.7188,-0.50781 -5.4336,-1.2656 -8.1406,-2.2656 v -9.2656 c 2.707,1.4492 5.3281,2.5391 7.8594,3.2656 2.5391,0.73047 4.9883,1.0938 7.3438,1.0938 2.3945,0 4.2266,-0.39453 5.5,-1.1875 1.2695,-0.80078 1.9062,-1.9414 1.9062,-3.4219 0,-1.332 -0.43359,-2.3594 -1.2969,-3.0781 -0.86719,-0.71875 -2.5898,-1.3633 -5.1719,-1.9375 l -4.2344,-0.9375 c -4.2617,-0.90625 -7.375,-2.3516 -9.3438,-4.3438 -1.9609,-2 -2.9375,-4.6914 -2.9375,-8.0781 0,-4.2266 1.3633,-7.4844 4.0938,-9.7656 2.7383,-2.2812 6.6719,-3.4219 11.797,-3.4219 2.332,0 4.7344,0.17969 7.2031,0.53125 2.4688,0.35547 5.0234,0.88281 7.6719,1.5781 z"
         id="path933"
         inkscape:connector-curvature="0" />
    </symbol>
  </defs>
  <g
     id="g1027"
     transform="translate(-82.588645,-126.89938)">
    <path
       d="m 467.22664,251.73197 h -117.71 c -6.418,0 -12.367,-1.2852 -17.852,-3.3828 -3.8516,-1.5156 -7.3516,-3.5 -10.5,-5.9492 -9.1016,-6.8828 -15.05099,-16.801 -15.05099,-28.117 -1.2852,-8.0508 -8.2852,-14 -16.44901,-14 h -16.56599 c -8.2852,0 -15.28501,5.832 -16.801,14 0,11.434 2.4492,22.285 6.6484,32.199 1.5156,3.6172 3.2656,7 5.25,10.266 10.5,17.5 27.184,31.148 47.25,38.617 6.88279,2.5664 14.23399,4.3164 21.934,5.25 3.9648,0.46484 8.0508,0.81641 12.133,0.81641 h 117.83 c 51.332,0 93.215,-39.199 93.215,-87.266 0,-48.067 -41.766,-87.266 -93.215,-87.266 h -107.57 c 17.266,8.9844 31.73399,22.285 41.418,38.5 2.2148,3.6172 4.082,7.4648 5.7148,11.316 h 60.316 c 23.918,0 43.285,16.801 43.285,37.332 0.004,20.535 -19.363,37.684 -43.281,37.684 z"
       id="path938"
       inkscape:connector-curvature="0" />
    <path
       d="m 305.76664,127.95197 c -3.9648,-0.46484 -8.0508,-0.81641 -12.133,-0.81641 H 175.80365 c -51.332,0 -93.215005,39.199 -93.215005,87.266 0,48.067 41.766005,87.266 93.215005,87.266 h 107.56999 c -17.266,-8.9844 -31.73399,-22.285 -41.41799,-38.5 -2.21481,-3.6172 -4.082,-7.4648 -5.71481,-11.316 h -60.316 c -23.918,0 -43.285,-16.801 -43.285,-37.332 0,-20.535 19.48401,-37.332 43.285,-37.332 h 117.72 c 6.418,0 12.367,1.2852 17.852,3.3828 3.8516,1.5156 7.3516,3.5 10.5,5.9492 9.1016,6.8828 15.051,16.801 15.051,28.117 1.2852,8.0508 8.2852,14 16.449,14 h 16.566 c 8.2852,0 15.285,-5.832 16.801,-14 0,-11.434 -2.4492,-22.285 -6.6484,-32.199 -1.5156,-3.6172 -3.2656,-7 -5.25,-10.266 -10.5,-17.5 -27.184,-31.148 -47.25,-38.617 -7.0078,-2.918 -14.359,-4.668 -21.941,-5.6016 z"
       id="path940"
       inkscape:connector-curvature="0" />
  </g>
</svg>
