<?xml version="1.0" encoding="utf-8"?>
<!-- Generator: Adobe Illustrator 24.0.0, SVG Export Plug-In . SVG Version: 6.00 Build 0)  -->
<svg version="1.1" id="Layer_1" xmlns="http://www.w3.org/2000/svg" xmlns:xlink="http://www.w3.org/1999/xlink" x="0px" y="0px"
	 viewBox="0 0 1000 1000" style="enable-background:new 0 0 1000 1000;" xml:space="preserve">
<style type="text/css">
	.st0{display:none;fill:#1B262C;}
	.st1{fill:url(#SVGID_1_);}
	.st2{fill:url(#SVGID_2_);}
	.st3{fill:url(#SVGID_3_);}
	.st4{fill:url(#SVGID_4_);}
	.st5{fill:url(#SVGID_5_);}
	.st6{fill:url(#SVGID_6_);}
	.st7{fill:url(#SVGID_7_);}
	.st8{fill:url(#SVGID_8_);}
	.st9{fill:url(#SVGID_9_);}
	.st10{fill:url(#SVGID_10_);}
</style>
<rect x="0.33" y="0" class="st0" width="999.67" height="1000.71"/>
<g>
	<g>
		<g>
			<linearGradient id="SVGID_1_" gradientUnits="userSpaceOnUse" x1="502.2103" y1="792.8362" x2="502.2103" y2="214.5015">
				<stop  offset="0" style="stop-color:#529DAD"/>
				<stop  offset="1" style="stop-color:#60BF91"/>
			</linearGradient>
			<path class="st1" d="M502.21,304.8c-96.03,0-174.16,78.13-174.16,174.16s78.13,174.15,174.15,174.15
				c96.03,0,174.16-78.12,174.16-174.15S598.24,304.8,502.21,304.8z M502.21,615.77c-75.44,0-136.81-61.37-136.81-136.81
				c0-75.44,61.37-136.82,136.82-136.82c75.44,0,136.81,61.37,136.81,136.82C639.02,554.39,577.65,615.77,502.21,615.77z"/>
			<linearGradient id="SVGID_2_" gradientUnits="userSpaceOnUse" x1="676.7892" y1="792.8362" x2="676.7892" y2="214.5015">
				<stop  offset="0" style="stop-color:#529DAD"/>
				<stop  offset="1" style="stop-color:#60BF91"/>
			</linearGradient>
			<path class="st2" d="M789.1,337.47c0-26.26-21.36-47.62-47.61-47.62c-26.26,0-47.62,21.36-47.62,47.62
				c0,21.35,14.22,39.25,33.61,45.27v194.47c0,20.47-11.02,39.55-28.75,49.79l-134.26,77.52l14,24.25l134.26-77.52
				c26.37-15.22,42.75-43.6,42.75-74.04V382.74C774.89,376.72,789.1,358.82,789.1,337.47z M741.49,357.08
				c-10.81,0-19.61-8.8-19.61-19.61c0-10.81,8.8-19.61,19.61-19.61c10.81,0,19.61,8.8,19.61,19.61
				C761.1,348.28,752.3,357.08,741.49,357.08z"/>
			<linearGradient id="SVGID_3_" gradientUnits="userSpaceOnUse" x1="443.3457" y1="792.8362" x2="443.3457" y2="214.5015">
				<stop  offset="0" style="stop-color:#529DAD"/>
				<stop  offset="1" style="stop-color:#60BF91"/>
			</linearGradient>
			<path class="st3" d="M305.76,337.47c0-2.52-0.36-4.93-0.74-7.35l166.06-97.46c17.73-10.23,39.76-10.23,57.49,0l133.6,77.13
				l14-24.25l-133.6-77.13c-26.37-15.23-59.13-15.22-85.58,0.05l-164.3,96.43c-8.69-9.21-20.91-15.03-34.54-15.03
				c-26.25,0-47.61,21.36-47.61,47.62c0,26.26,21.36,47.62,47.61,47.62C284.4,385.09,305.76,363.73,305.76,337.47z M238.53,337.47
				c0-10.81,8.79-19.61,19.61-19.61c10.81,0,19.61,8.8,19.61,19.61c0,10.81-8.8,19.61-19.61,19.61
				C247.33,357.08,238.53,348.28,238.53,337.47z"/>
			<linearGradient id="SVGID_4_" gradientUnits="userSpaceOnUse" x1="396.9801" y1="792.8362" x2="396.9801" y2="214.5015">
				<stop  offset="0" style="stop-color:#529DAD"/>
				<stop  offset="1" style="stop-color:#60BF91"/>
			</linearGradient>
			<path class="st4" d="M502.21,708.76c-13.47,0-25.59,5.68-34.26,14.7L300.89,627c-17.73-10.24-28.75-29.32-28.75-49.79V420.56
				h-28.01v156.65c0,30.44,16.38,58.81,42.75,74.04l168.5,97.28c-0.43,2.56-0.79,5.16-0.79,7.84c0,26.26,21.36,47.62,47.61,47.62
				c26.26,0,47.62-21.36,47.62-47.62S528.46,708.76,502.21,708.76z M502.21,775.99c-10.81,0-19.61-8.8-19.61-19.61
				c0-10.81,8.79-19.61,19.61-19.61s19.61,8.8,19.61,19.61C521.82,767.19,513.02,775.99,502.21,775.99z"/>
			<linearGradient id="SVGID_5_" gradientUnits="userSpaceOnUse" x1="455.2596" y1="792.8362" x2="455.2596" y2="214.5015">
				<stop  offset="0" style="stop-color:#529DAD"/>
				<stop  offset="1" style="stop-color:#60BF91"/>
			</linearGradient>
			<path class="st5" d="M455.26,522.5c-14.14,0-25.59,11.46-25.59,25.6c0,14.14,11.46,25.59,25.59,25.59
				c14.14,0,25.6-11.46,25.6-25.59C480.85,533.95,469.4,522.5,455.26,522.5z"/>
			<linearGradient id="SVGID_6_" gradientUnits="userSpaceOnUse" x1="529.9557" y1="792.8362" x2="529.9557" y2="214.5015">
				<stop  offset="0" style="stop-color:#529DAD"/>
				<stop  offset="1" style="stop-color:#60BF91"/>
			</linearGradient>
			<path class="st6" d="M525.12,456.5v12.36h9.66V456.5c6.42-0.86,12.27-3.34,17.19-7.09l8.72,8.72l6.83-6.83l-8.72-8.72
				c3.75-4.91,6.23-10.76,7.09-17.19h12.36v-9.66H565.9c-0.86-6.42-3.34-12.27-7.09-17.19l8.72-8.72l-6.83-6.83l-8.72,8.72
				c-4.91-3.75-10.76-6.23-17.18-7.09v-12.36h-9.66v12.36c-6.42,0.86-12.27,3.34-17.18,7.09l-8.72-8.72l-6.83,6.83l8.72,8.72
				c-3.75,4.91-6.23,10.76-7.09,17.19h-12.36v9.66h12.36c0.86,6.43,3.34,12.28,7.09,17.19l-8.72,8.72l6.83,6.83l8.72-8.72
				C512.85,453.16,518.7,455.64,525.12,456.5z"/>
			<linearGradient id="SVGID_7_" gradientUnits="userSpaceOnUse" x1="566.2201" y1="792.8362" x2="566.2201" y2="214.5015">
				<stop  offset="0" style="stop-color:#529DAD"/>
				<stop  offset="1" style="stop-color:#60BF91"/>
			</linearGradient>
			<path class="st7" d="M570.32,572.78c40.52-27.41,41.12-75.38,41.12-75.38c-4.17-28.9-22.19,10.01-68.53,32.48
				C497.96,551.67,529.8,600.2,570.32,572.78z"/>
		</g>
		<linearGradient id="SVGID_8_" gradientUnits="userSpaceOnUse" x1="423.5607" y1="792.8362" x2="423.5607" y2="214.5015">
			<stop  offset="0" style="stop-color:#529DAD"/>
			<stop  offset="1" style="stop-color:#60BF91"/>
		</linearGradient>
		<path class="st8" d="M449.97,411.65c-2.19-17.97-28.54-17.31-30.88,0.65c-1.13,8.67-1.12,19.38-9.58,30.06
			c-16.73,21.1-16.96,44.29,0.88,47.8c17.84,3.51,27.78-19.3,27.81-37.73c0.03-18.42,12.84-25.15,11.89-39.48
			C450.06,412.51,450.02,412.08,449.97,411.65z"/>
		<g>
			<linearGradient id="SVGID_9_" gradientUnits="userSpaceOnUse" x1="604.5508" y1="792.8362" x2="604.5508" y2="214.5015">
				<stop  offset="0" style="stop-color:#529DAD"/>
				<stop  offset="1" style="stop-color:#60BF91"/>
			</linearGradient>
			<path class="st9" d="M596.49,509.93v-10.01h2.47c8.34-10.6,12.93-23.41,11.82-33.31c-0.53-4.64-2.33-8.21-5.22-10.33
				c-11.88-8.71-12.02-17.49-12.02-17.86h4.63h-2.31l2.31-0.03c0.01,0.28,0.29,6.96,10.12,14.17c3.96,2.9,6.41,7.58,7.08,13.54
				c1.34,11.86-4.48,27.22-14.81,39.16L596.49,509.93z"/>
		</g>
		<linearGradient id="SVGID_10_" gradientUnits="userSpaceOnUse" x1="601.0232" y1="792.8362" x2="601.0232" y2="214.5015">
			<stop  offset="0" style="stop-color:#529DAD"/>
			<stop  offset="1" style="stop-color:#60BF91"/>
		</linearGradient>
		<path class="st10" d="M610.1,475.43c-1.44-5.82-4.48-10.14-8.79-12.5c-3.86-2.12-6.44-4.32-8.21-6.3l-2.1,4.45
			c2,1.96,4.59,3.99,8.09,5.9c3.14,1.73,5.4,5.03,6.52,9.56c2.4,9.67-0.48,22.97-7.37,34.56l-2.44,0.32l1.31,9.93l3.42-5.17
			C609.21,503,612.97,487.01,610.1,475.43z"/>
	</g>
</g>
</svg>
